<?xml version="1.0" standalone="no"?>
<!DOCTYPE svg PUBLIC "-//W3C//DTD SVG 20010904//EN"
 "http://www.w3.org/TR/2001/REC-SVG-20010904/DTD/svg10.dtd">
<svg version="1.0" xmlns="http://www.w3.org/2000/svg"
 width="478.000000pt" height="478.000000pt" viewBox="0 0 478.000000 478.000000"
 preserveAspectRatio="xMidYMid meet">
<metadata>
Created by potrace 1.14, written by Peter Selinger 2001-2017
</metadata>
<g transform="translate(0.000000,478.000000) scale(0.100000,-0.100000)"
fill="#000000" stroke="none">
<path d="M0 2390 l0 -2390 2390 0 2390 0 0 2390 0 2390 -2390 0 -2390 0 0
-2390z m1423 1498 c31 -79 999 -2464 1001 -2465 1 -2 206 496 456 1105 249
609 478 1167 508 1240 l54 132 210 0 c164 0 209 -3 205 -12 -3 -7 -280 -708
-617 -1558 -337 -850 -614 -1551 -617 -1558 -7 -18 -499 -18 -506 1 -2 6 -276
707 -607 1557 -331 850 -605 1551 -607 1558 -4 9 51 12 255 12 199 0 261 -3
265 -12z"/>
</g>
</svg>
